# xmcd
#
# Track frame offsets: 
#        150
#        15353
#        26853
#        40885
#        55635
#        69091
#        80495
#        91698
#        104860
#        117282
#        133051
#        147587
#        162400
#        175865
#        187146
#        200920
#        217941
#        232004
#        245825
#        258853
#        275689
#        287619
#
# Disc length: 4020 seconds
#
# Revision: 2
# Processed by: cddbd v1.5.2PL0 Copyright (c) Steve Scherf et al.
# Submitted via: ExactAudioCopyFreeDBPlugin 1.0
#
DISCID=4b0fb216
DTITLE=Various Artist - CD 05 New York forever - Jazz in the big apple
DYEAR=2009
DGENRE=Jazz
TTITLE0=Duke Ellington Orchestra - Harlem Airshaft
TTITLE1=Nat King Cole - A Trio Grooves In Brooklyn
TTITLE2=Cab Callway Orchestra - The Man From Harlem
TTITLE3=Frank Sinatra - Autumn In New York
TTITLE4=Luis Russell Orchestra - Bolero At the Savoy
TTITLE5=Bill 'Bojangles' Robinson - Doin' The Never Low Down
TTITLE6=Ella Fitzgerald - Vote For Mr. Rythm
TTITLE7=Benny Goodman Orchestra - Jam Session
TTITLE8=Dizzy Gillespie's Big Band - Coal Breeze
TTITLE9=Charlie Parker - Autumn in New York
TTITLE10=Louis Armstrong Orchestra - Savoy Blues
TTITLE11=Chick Webb - Harlem Congo
TTITLE12=Ethel Waters - Old Man Harlem
TTITLE13=Chu Berry and His Little Jazz Ensemble - Forty Six West Fifty
TTITLE13=Two
TTITLE14=Fletcher Henderson - Chinatown, My Chinatown
TTITLE15=Teddy Wilson - Stompin' At The Savoy
TTITLE16=Wardell Gray - It's The Talk Of The Town
TTITLE17=Billie Holiday - On The Sunny Side Of The Street
TTITLE18=Lester Young - Lester Smooths It Out
TTITLE19=Clifford Brown - Easy Living
TTITLE20=Illinois Jacquet - Riffin' At 24th Street
TTITLE21=Milt Jackson - Bag's Groove
EXTD=YEAR: 2008
EXTT0=
EXTT1=
EXTT2=
EXTT3=
EXTT4=
EXTT5=
EXTT6=
EXTT7=
EXTT8=
EXTT9=
EXTT10=
EXTT11=
EXTT12=
EXTT13=
EXTT14=
EXTT15=
EXTT16=
EXTT17=
EXTT18=
EXTT19=
EXTT20=
EXTT21=
PLAYORDER=
